<svg width="250" height="250" viewBox="0 0 250 250" fill="none" xmlns="http://www.w3.org/2000/svg">
<path d="M0 125C-1.43507e-06 141.415 3.23322 157.67 9.51506 172.835C15.7969 188.001 25.0043 201.781 36.6117 213.388C48.219 224.996 61.9989 234.203 77.1646 240.485C92.3303 246.767 108.585 250 125 250L125 125L0 125Z" fill="#10143E"/>
<path d="M15 125C15 139.445 17.8452 153.749 23.3732 167.095C28.9013 180.441 37.0038 192.567 47.2183 202.782C57.4327 212.996 69.559 221.099 82.9048 226.627C96.2506 232.155 110.555 235 125 235L125 125L15 125Z" fill="#E5E5E5"/>
<path d="M125 30C99.8044 30 75.6408 40.0089 57.8249 57.8249C40.0089 75.6408 30 99.8044 30 125C30 150.196 40.0089 174.359 57.8248 192.175C75.6408 209.991 99.8044 220 125 220L125 125L125 30Z" fill="#10143E"/>
<path d="M125 45C103.783 45 83.4344 53.4285 68.4315 68.4315C53.4286 83.4344 45 103.783 45 125C45 146.217 53.4285 166.566 68.4315 181.569C83.4344 196.571 103.783 205 125 205L125 125L125 45Z" fill="#E5E5E5"/>
<path d="M190 124.802C189.96 111.946 186.11 99.3907 178.935 88.7233C171.76 78.0559 161.583 69.7557 149.691 64.8723C137.799 59.9888 124.726 58.7414 112.125 61.2879C99.5237 63.8344 87.9608 70.0603 78.8981 79.1784C69.8355 88.2965 63.6802 99.8972 61.2106 112.514C58.741 125.13 60.0681 138.195 65.024 150.057C69.9798 161.92 78.342 172.046 89.0529 179.155C99.7638 186.265 112.342 190.039 125.198 190L125 125L190 124.802Z" fill="#10143E"/>
</svg>
